<?xml version="1.0" standalone="no"?>
<!DOCTYPE svg PUBLIC "-//W3C//DTD SVG 20010904//EN"
 "http://www.w3.org/TR/2001/REC-SVG-20010904/DTD/svg10.dtd">
<svg version="1.0" xmlns="http://www.w3.org/2000/svg"
 width="1296.000000pt" height="1296.000000pt" viewBox="0 0 1296.000000 1296.000000"
 preserveAspectRatio="xMidYMid meet">
<metadata>
Created by potrace 1.14, written by Peter Selinger 2001-2017
</metadata>
<g transform="translate(0.000000,1296.000000) scale(0.100000,-0.100000)"
fill="#000000" stroke="none">
<path d="M4307 9724 c1 -581 3 -1057 5 -1058 2 -2 133 -101 292 -220 160 -120
295 -220 300 -222 8 -3 11 284 10 963 0 533 1 973 3 978 3 11 1856 12 1993 1
117 -9 158 -16 268 -42 601 -144 1081 -610 1242 -1207 77 -284 75 -629 -6
-901 -103 -345 -322 -667 -590 -867 -32 -24 -61 -46 -64 -50 -10 -11 -185
-116 -217 -130 -38 -16 -39 -19 -15 -40 9 -9 109 -109 221 -223 l203 -206 37
22 c41 24 209 143 261 185 67 53 277 268 340 348 213 268 389 640 446 939 2
12 6 32 9 46 12 56 22 119 31 200 10 85 12 347 4 420 -5 36 -11 90 -14 120
-10 91 -15 119 -47 250 -185 754 -745 1366 -1484 1623 -175 61 -316 92 -527
117 -40 4 -665 9 -1388 9 l-1315 1 2 -1056z"/>
<path d="M5100 9160 l0 -785 1790 -1790 1790 -1790 425 0 c234 0 425 1 425 3
0 3 -30 34 -66 71 -77 77 -903 916 -1108 1125 -76 77 -351 356 -610 620 -259
263 -536 545 -616 626 -80 81 -345 351 -590 600 -759 771 -830 844 -831 860 0
23 0 454 0 551 l1 87 533 -3 532 -2 88 -27 c270 -81 465 -261 561 -518 27 -70
31 -88 44 -187 34 -245 -59 -506 -244 -688 -112 -110 -238 -178 -423 -229 -8
-3 82 -100 215 -234 126 -127 230 -235 232 -240 7 -19 211 101 307 181 250
206 436 513 499 819 158 779 -334 1532 -1114 1704 -123 27 -188 29 -1012 30
l-828 1 0 -785z"/>
<path d="M3743 7663 c-7 -3 -13 -8 -13 -13 0 -7 -64 -142 -229 -485 l-48 -100
1425 -3 c784 -1 1427 0 1430 3 3 3 -130 140 -295 305 l-300 299 -979 0 c-538
-1 -985 -3 -991 -6z"/>
<path d="M3695 6771 c-8 -15 -235 -585 -235 -593 0 -9 3492 -4 3545 5 22 4 56
9 75 12 103 15 121 -13 -193 301 l-285 284 -1450 0 c-876 0 -1453 -4 -1457 -9z"/>
<path d="M6451 5904 c-39 -12 -73 -19 -76 -16 -3 3 -5 1 -5 -5 0 -6 -17 -14
-37 -19 -42 -8 -42 -8 -63 -17 -8 -3 -55 -17 -105 -32 -49 -14 -97 -29 -105
-32 -8 -3 -20 -7 -27 -9 -16 -3 -84 -24 -103 -31 -8 -4 -19 -5 -24 -4 -4 1
-14 -4 -22 -10 -8 -6 -14 -9 -14 -5 0 3 -17 -1 -37 -8 -42 -16 -269 -87 -287
-90 -6 -1 -17 -5 -23 -9 -7 -5 -17 -5 -23 -2 -5 3 -10 1 -10 -6 0 -7 -3 -9 -6
-6 -4 3 -14 2 -24 -3 -9 -5 -28 -11 -41 -14 -13 -2 -60 -16 -104 -31 -44 -15
-87 -28 -95 -30 -8 -2 -27 -8 -42 -14 -16 -6 -28 -8 -28 -5 0 2 -8 0 -18 -5
-11 -6 -31 -12 -46 -15 -14 -3 -33 -12 -42 -20 -8 -9 -19 -16 -24 -16 -4 0
-10 -6 -13 -14 -8 -20 30 -66 54 -66 11 0 27 -4 37 -9 29 -15 87 -31 110 -31
12 0 22 -4 22 -8 0 -4 12 -9 26 -10 15 -1 33 -7 40 -13 8 -6 14 -9 14 -6 0 3
36 -6 81 -20 45 -13 90 -25 100 -26 10 -1 20 -8 20 -17 1 -8 2 -196 3 -417 l1
-402 -25 -7 c-14 -4 -30 -8 -36 -8 -23 -2 -147 -106 -127 -106 4 0 3 -4 -3 -8
-23 -15 -41 -97 -43 -196 -1 -56 -2 -105 -2 -111 0 -5 1 -60 4 -121 3 -91 8
-119 28 -158 32 -66 99 -124 154 -136 6 -1 15 -5 20 -10 6 -4 40 -7 76 -6 120
3 217 74 254 187 14 40 16 86 13 266 -3 191 -5 223 -22 257 -35 71 -119 140
-184 152 -8 1 -17 5 -20 9 -4 4 -7 184 -7 402 l0 395 24 9 c13 5 33 11 45 14
11 2 21 4 21 5 0 1 7 3 15 5 8 1 35 8 60 15 25 7 50 13 55 14 6 2 34 10 64 19
29 9 57 14 62 11 5 -3 9 -1 9 4 0 5 12 12 28 15 64 12 207 52 210 59 2 5 7 6
11 3 5 -2 67 13 139 33 102 30 129 41 120 50 -37 37 96 75 210 61 52 -7 102
-31 102 -49 0 -5 -15 -17 -32 -27 -25 -13 -62 -18 -143 -20 -106 -2 -122 -4
-155 -15 -50 -17 -172 -51 -177 -49 -2 0 -21 -6 -43 -14 -22 -8 -40 -11 -40
-8 0 4 -5 2 -11 -4 -6 -6 -18 -9 -25 -6 -8 3 -14 1 -14 -4 0 -5 -10 -10 -22
-10 -23 -1 -226 -58 -263 -73 -11 -5 -53 -16 -93 -25 -40 -10 -75 -21 -78 -26
-3 -5 -2 -9 3 -10 21 -2 223 -61 263 -77 14 -5 28 -10 33 -10 17 -1 73 -15 82
-20 13 -8 36 -13 58 -13 9 0 17 -3 17 -7 0 -4 12 -9 26 -10 14 -1 31 -5 37 -9
7 -4 14 -8 17 -8 27 -4 121 -31 143 -42 15 -7 27 -11 27 -9 0 3 15 0 33 -5 89
-28 138 -38 158 -34 10 2 21 -1 24 -6 4 -5 12 -6 18 -2 7 4 27 8 45 9 18 2 39
7 46 13 7 6 15 8 18 5 3 -2 23 2 44 10 63 23 277 89 291 89 7 0 13 3 13 7 0 4
6 7 13 7 6 0 66 17 131 38 66 20 125 38 130 39 6 1 16 4 21 7 6 4 24 10 40 14
43 12 44 12 53 15 4 2 12 4 17 5 6 1 22 7 38 13 15 7 38 14 50 16 12 3 111 34
220 68 212 68 256 92 237 127 -11 22 -38 39 -67 44 -10 1 -24 6 -30 10 -7 5
-13 5 -13 0 0 -4 -4 -2 -9 5 -4 7 -18 14 -29 15 -12 1 -22 5 -22 10 0 4 -4 6
-8 3 -4 -2 -21 1 -37 9 -17 7 -59 23 -95 36 -36 12 -71 27 -77 32 -7 5 -13 7
-13 4 0 -4 -30 5 -67 19 -37 14 -72 26 -77 27 -6 1 -13 4 -16 7 -5 5 -122 47
-150 54 -15 4 -84 29 -125 46 -63 25 -105 39 -105 34 0 -4 -6 -2 -12 4 -7 5
-42 19 -78 32 -36 12 -78 28 -95 35 -16 8 -33 11 -37 9 -4 -3 -8 0 -8 7 0 7
-3 10 -6 6 -4 -3 -19 0 -34 8 -15 8 -30 11 -34 8 -3 -4 -6 -1 -6 6 0 7 -3 10
-7 8 -5 -3 -19 0 -33 6 -69 28 -190 28 -279 1z m-936 -1699 c1 -63 -2 -115 -7
-116 -32 -4 -138 -3 -139 1 -14 56 6 137 44 178 23 25 89 63 97 56 2 -3 5 -56
5 -119z m183 66 c27 -35 45 -78 48 -116 5 -68 2 -72 -69 -68 -34 2 -67 5 -72
7 -8 3 -13 184 -6 229 1 10 83 -32 99 -52z m-36 -276 c5 -7 8 -6 8 1 0 6 17
10 38 9 l37 -1 0 -124 c1 -69 -3 -129 -8 -135 -4 -5 -17 -25 -28 -43 -40 -67
-161 -97 -236 -58 -85 44 -106 89 -108 236 -1 63 2 117 6 120 15 10 284 5 291
-5z"/>
<path d="M4650 5340 c-157 -116 -298 -220 -314 -233 -31 -24 -31 -28 -27 -275
l1 -37 317 0 318 0 0 378 c0 207 -2 377 -5 377 -3 0 -133 -95 -290 -210z"/>
<path d="M5839 5075 c-1 -5 -3 -173 -4 -373 l-1 -362 42 -40 c24 -22 47 -40
52 -40 5 0 15 -6 21 -14 16 -19 194 -107 220 -109 12 -1 21 -5 21 -10 0 -5 6
-7 14 -4 7 3 17 2 22 -3 10 -9 55 -19 117 -26 21 -2 47 -9 58 -14 13 -7 19 -7
19 -1 0 7 9 7 23 2 23 -8 210 -6 262 3 17 3 44 7 60 10 58 10 88 17 107 27 10
5 18 7 18 4 0 -8 99 32 177 73 40 20 101 60 135 87 l63 51 0 357 c0 231 -4
357 -10 358 -17 2 -46 -5 -125 -31 -36 -12 -72 -24 -80 -25 -8 -2 -46 -13 -85
-25 -38 -13 -74 -23 -80 -24 -5 -1 -16 -5 -22 -9 -7 -5 -17 -5 -23 -2 -5 3
-10 1 -10 -6 0 -7 -3 -10 -6 -7 -3 4 -22 -1 -42 -9 -20 -8 -38 -15 -39 -14 -2
0 -5 0 -8 0 -3 -1 -9 -3 -15 -4 -5 -1 -11 -3 -12 -5 -28 -21 -214 -16 -252 8
-6 3 -17 7 -26 8 -18 1 -99 23 -120 31 -8 3 -24 8 -35 10 -11 2 -31 7 -45 12
-30 12 -141 45 -155 47 -5 0 -17 4 -25 7 -12 5 -47 15 -115 33 -5 1 -25 7 -42
13 -18 5 -33 7 -33 3 0 -4 -5 0 -10 8 -5 8 -10 11 -11 5z"/>
<path d="M7892 4035 c-17 -8 -32 -18 -33 -22 0 -4 -2 -18 -3 -31 -5 -47 70
-75 110 -41 17 14 22 54 10 71 -22 30 -49 37 -84 23z"/>
<path d="M6597 3995 c-2 -5 -3 -40 -2 -77 1 -38 -1 -68 -4 -68 -3 0 -17 9 -31
20 -27 21 -92 26 -133 11 -82 -32 -123 -158 -82 -258 34 -85 147 -125 214 -75
37 27 44 28 36 2 -6 -18 -2 -20 52 -20 l58 0 -1 233 c-1 127 -2 234 -3 237 -2
10 -101 5 -104 -5z m-49 -204 c22 -2 52 -63 47 -96 -17 -102 -155 -90 -155 14
0 20 4 41 8 47 14 20 54 42 70 39 9 -2 23 -4 30 -4z"/>
<path d="M9332 4001 c-4 -4 -7 -111 -7 -238 l0 -233 55 0 55 0 0 229 c0 126
-3 233 -7 237 -9 8 -85 12 -96 5z"/>
<path d="M6005 3755 l0 -225 137 0 138 0 0 44 0 44 -72 0 c-40 0 -78 1 -84 1
-12 1 -12 76 0 88 4 5 35 8 69 8 l62 0 3 43 3 42 -73 0 -73 0 -1 45 -1 45 41
1 c23 0 60 1 84 1 l42 0 0 44 0 44 -138 0 -137 0 0 -225z"/>
<path d="M7628 3969 c-6 -4 -9 -23 -6 -43 4 -32 2 -36 -19 -36 -23 0 -25 -6
-25 -60 0 -35 2 -39 16 -34 22 9 29 -14 29 -95 -2 -127 33 -171 134 -171 l49
0 0 45 c0 44 -4 49 -38 46 -26 -3 -38 32 -37 103 2 68 9 79 49 71 21 -4 22 -2
22 40 0 50 -2 56 -19 54 -48 -4 -53 0 -53 44 l0 43 -46 0 c-25 0 -50 -3 -56
-7z"/>
<path d="M6783 3751 c3 -146 11 -172 63 -206 36 -23 106 -22 149 3 35 21 35
21 35 1 0 -18 6 -20 53 -17 l52 3 1 177 1 178 -54 -3 -55 -2 -2 -118 c-1 -134
-10 -151 -76 -145 -50 4 -60 31 -60 160 l0 106 -55 0 -55 -1 3 -136z"/>
<path d="M7295 3876 c-143 -66 -125 -314 25 -343 106 -20 196 21 215 100 7 27
7 27 -47 27 -41 0 -57 -5 -71 -20 -9 -11 -28 -20 -42 -20 -41 0 -65 33 -65 88
0 26 7 56 15 66 21 28 71 29 93 3 13 -17 27 -22 57 -21 85 4 79 -1 53 46 -34
62 -67 82 -141 85 -38 2 -74 -2 -92 -11z"/>
<path d="M7869 3882 c-1 -4 -2 -85 -3 -179 l-1 -173 55 0 55 0 -1 173 c-1 94
-2 175 -3 179 -1 8 -101 9 -102 0z"/>
<path d="M8124 3871 c-18 -11 -44 -36 -60 -56 -36 -47 -42 -134 -14 -192 63
-131 271 -130 331 1 32 71 20 164 -28 215 -47 51 -170 68 -229 32z m148 -104
c59 -75 -30 -189 -101 -129 -43 35 -31 142 18 156 28 7 66 -5 83 -27z"/>
<path d="M8460 3710 l0 -180 54 0 54 0 4 121 c3 106 5 122 22 135 29 21 64 17
90 -9 21 -21 22 -30 21 -135 l-1 -112 56 0 56 0 -1 124 c-1 96 -5 133 -19 164
-31 68 -126 93 -193 52 -32 -19 -33 -19 -33 -1 0 15 -9 19 -55 20 l-55 1 0
-180z"/>
<path d="M8949 3867 c-50 -34 -77 -88 -76 -156 0 -144 108 -224 222 -167 24
13 44 20 43 17 -3 -26 6 -31 56 -31 l54 0 0 180 -1 181 -41 -2 c-59 -2 -76 -8
-69 -25 7 -20 -4 -18 -34 6 -36 28 -110 27 -154 -3z m165 -97 c31 -30 28 -102
-5 -129 -44 -37 -99 -23 -118 30 -17 49 -13 68 19 100 33 34 70 34 104 -1z"/>
</g>
</svg>
